<svg id="f528bc63-b4bc-451b-902e-c97726454905" data-name="圖層 1" xmlns="http://www.w3.org/2000/svg" viewBox="0 0 33.26 33.26"><defs><style>.ab40699b-8ea5-4e94-847d-0a63cb224f7c{fill:#fff;}</style></defs><path class="ab40699b-8ea5-4e94-847d-0a63cb224f7c" d="M4.07,31.28H2.69c-.49,0-.7-.21-.7-.71q0-1.37,0-2.73c0-.45.2-.61.63-.46a1.7,1.7,0,0,0,1.9-.45l3-3a.64.64,0,0,0,.13-1q-1.89-3.51-3.79-7a.42.42,0,0,1,.08-.56l2.15-2.19c.17-.18.24-.17.37.06l2.22,4,.09.15a.51.51,0,0,0,.86.16l1.07-.91c2.08-1.78,4.17-3.55,6.25-5.34s4-3.45,6-5.2a15,15,0,0,1,4.11-2.49L31,2a.64.64,0,0,1,.28,0,.88.88,0,0,1,0,.28c-.25.68-.48,1.36-.76,2C30,5.4,29.56,6.5,29,7.57a14.74,14.74,0,0,1-2.26,3.28l-3.19,3.63-3.85,4.46-4.09,4.8c-.27.32-.22.53.15.74l4.08,2.27c.34.19.35.32.08.58l-2,1.91a.58.58,0,0,1-.79.11l-4.05-2.19-2.9-1.58a.67.67,0,0,0-.92.14c-1,1-2,2-3,3.06a1.66,1.66,0,0,0-.43,1.8c.18.55.05.7-.52.7C4.91,31.27,4.49,31.28,4.07,31.28Zm7.42-9.19a1.37,1.37,0,0,0,.25-.15c1.35-1.35,2.69-2.7,4-4l3.75-3.75c.37-.37.74-.73,1.1-1.11a.41.41,0,0,0,.08-.35.37.37,0,0,0-.3-.16c-.08,0-.18.09-.25.17l-8.77,8.76c-.05.05-.12.1-.14.17a.36.36,0,0,0,0,.27A.78.78,0,0,0,11.49,22.09Z"/></svg>