<svg id="ae2e4e13-5160-4d88-a836-1132080d59ed" data-name="圖層 1" xmlns="http://www.w3.org/2000/svg" viewBox="0 0 33.26 33.26"><defs><style>.ada287c5-2261-480a-b288-285718c2c32c{fill:#fff;}</style></defs><path class="ada287c5-2261-480a-b288-285718c2c32c" d="M30.87,10.75l-.09,5.57c0,.58,0,1.16,0,1.74s-.2.8-.8.83l-4.48.25-6.26.34c-.5,0-.65.19-.66.69s0,1-.07,1.5a.7.7,0,0,1-.74.72l-4.43.05c-.56,0-.71.16-.72.72,0,.27,0,.54,0,.81a1,1,0,0,1-.47.86L8.44,27.28,4.1,30.16c-.51.34-.75.27-1.06-.26a3.33,3.33,0,0,0-.49-.63c-.32-.34-.33-.48,0-.8,2-2,4-4,6-5.93a1.48,1.48,0,0,0,.49-1.42c-.12-.7-.18-1.42-.27-2.13,0-.35.06-.49.42-.52L13,18.18c.37,0,.49-.15.45-.52-.09-.83-.19-1.67-.29-2.51l0-.28a.57.57,0,0,1,.6-.69l2.53-.1,4.38-.17,4.76-.18h.18c.27,0,.36-.13.36-.4,0-.88,0-1.76,0-2.64,0-1.09,0-2.18-.05-3.27,0-.22-.08-.29-.3-.29l-6.2,0a1.09,1.09,0,0,0-.26,0c-.27,0-.37.14-.38.41s0,.75,0,1.12,0,.77,0,1.16a.53.53,0,0,1-.55.62l-1.89.23a.49.49,0,0,1-.62-.49c-.12-1.09-.22-2.18-.32-3.27-.09-.89-.17-1.79-.26-2.68a1.94,1.94,0,0,1,0-.24.45.45,0,0,1,.47-.51l3.64-.14,5-.2,4-.15,2.24-.09c.46,0,.55.08.55.54q0,3.06-.07,6.12c0,.4,0,.79,0,1.19Z"/></svg>